<svg width="430" height="277" viewBox="0 0 430 277" fill="none" xmlns="http://www.w3.org/2000/svg">
<rect x="0.53125" y="0.394531" width="429.47" height="276.607" rx="38.914" fill="white"/>
<rect width="390.942" height="164.546" transform="translate(19.9883 19.8516)" fill="white"/>
<path d="M26.4062 157.557C86.5063 162.614 234.481 152.072 345.578 69.4492" stroke="#8E48F3" stroke-width="2.33398" stroke-linecap="round"/>
<circle cx="101.095" cy="155.806" r="6.41845" fill="#8E48F3" stroke="white" stroke-width="2.33398"/>
<circle cx="221.294" cy="132.466" r="6.41845" fill="#8E48F3" stroke="white" stroke-width="2.33398"/>
<circle cx="340.326" cy="71.7827" r="6.41845" fill="#8E48F3" stroke="white" stroke-width="2.33398"/>
<path d="M20.5662 229.406V217.97H22.8699L26.4479 225.289L30.0259 217.97H32.3132V229.406H30.6957V220.061L26.4315 228.589L22.1674 220.061V229.406H20.5662ZM38.3962 229.57C37.5902 229.57 36.855 229.379 36.1906 228.998C35.5371 228.617 35.0197 228.099 34.6385 227.446C34.2573 226.792 34.0667 226.062 34.0667 225.256C34.0667 224.45 34.2573 223.721 34.6385 223.067C35.0197 222.414 35.5371 221.896 36.1906 221.515C36.855 221.123 37.5902 220.927 38.3962 220.927C39.2131 220.927 39.9483 221.123 40.6018 221.515C41.2553 221.896 41.7727 222.414 42.1539 223.067C42.5351 223.721 42.7258 224.45 42.7258 225.256C42.7258 226.062 42.5351 226.792 42.1539 227.446C41.7727 228.099 41.2553 228.617 40.6018 228.998C39.9483 229.379 39.2131 229.57 38.3962 229.57ZM38.3962 228.132C38.9081 228.132 39.371 228.007 39.7849 227.756C40.1988 227.495 40.5256 227.146 40.7652 226.711C41.0048 226.275 41.1246 225.785 41.1246 225.24C41.1246 224.706 40.9994 224.227 40.7489 223.802C40.5093 223.367 40.1825 223.018 39.7686 222.757C39.3656 222.495 38.9081 222.365 38.3962 222.365C37.8843 222.365 37.4214 222.495 37.0075 222.757C36.6045 223.018 36.2777 223.367 36.0272 223.802C35.7876 224.227 35.6678 224.706 35.6678 225.24C35.6678 225.785 35.7876 226.275 36.0272 226.711C36.2668 227.146 36.5936 227.495 37.0075 227.756C37.4214 228.007 37.8843 228.132 38.3962 228.132ZM44.2707 229.406V221.09H45.9045V221.94C46.5471 221.265 47.3803 220.927 48.4042 220.927C49.0468 220.927 49.6077 221.063 50.087 221.335C50.5771 221.608 50.9583 221.989 51.2306 222.479C51.5138 222.969 51.6554 223.536 51.6554 224.178V229.406H50.0216V224.456C50.0216 223.802 49.8365 223.29 49.4661 222.92C49.1067 222.539 48.6002 222.348 47.9467 222.348C47.5111 222.348 47.1189 222.441 46.7704 222.626C46.4219 222.811 46.1332 223.078 45.9045 223.427V229.406H44.2707Z" fill="#21212F"/>
<path opacity="0.5" d="M33.3733 253.738V243.985L31.3147 244.85V243.413L33.9614 242.302H34.9907V253.738H33.3733ZM38.5108 253.738V243.985L36.4522 244.85V243.413L39.0989 242.302H40.1282V253.738H38.5108Z" fill="#21212F"/>
<path d="M89.7226 229.406V219.489H85.7035V217.97H95.4572V219.489H91.4381V229.406H89.7226ZM99.1972 229.57C98.5546 229.57 97.9882 229.433 97.4981 229.161C97.0079 228.889 96.6267 228.508 96.3544 228.018C96.0821 227.517 95.946 226.945 95.946 226.302V221.09H97.5634V226.024C97.5634 226.678 97.7486 227.195 98.1189 227.576C98.5001 227.958 99.0066 228.148 99.6383 228.148C100.085 228.148 100.482 228.056 100.831 227.87C101.18 227.674 101.463 227.402 101.681 227.054V221.09H103.314V229.406H101.681V228.557C101.038 229.232 100.21 229.57 99.1972 229.57ZM109.235 229.553C108.418 229.553 107.677 229.363 107.013 228.981C106.359 228.6 105.837 228.083 105.445 227.429C105.063 226.776 104.873 226.046 104.873 225.24C104.873 224.445 105.058 223.726 105.428 223.083C105.799 222.43 106.3 221.913 106.931 221.531C107.563 221.139 108.266 220.943 109.039 220.943C109.812 220.943 110.498 221.139 111.097 221.531C111.696 221.913 112.17 222.435 112.519 223.1C112.878 223.753 113.058 224.494 113.058 225.322V225.779H106.506C106.594 226.237 106.762 226.645 107.013 227.005C107.274 227.364 107.601 227.647 107.993 227.854C108.396 228.061 108.832 228.165 109.3 228.165C109.703 228.165 110.09 228.105 110.46 227.985C110.841 227.854 111.157 227.669 111.408 227.429L112.453 228.459C111.963 228.829 111.457 229.107 110.934 229.292C110.422 229.466 109.856 229.553 109.235 229.553ZM106.523 224.554H111.441C111.375 224.118 111.223 223.737 110.983 223.41C110.754 223.073 110.466 222.811 110.117 222.626C109.78 222.43 109.409 222.332 109.006 222.332C108.592 222.332 108.211 222.425 107.863 222.61C107.514 222.795 107.22 223.056 106.98 223.394C106.752 223.721 106.599 224.107 106.523 224.554Z" fill="#21212F"/>
<path opacity="0.5" d="M94.8928 253.738V243.985L92.8342 244.85V243.413L95.481 242.302H96.5102V253.738H94.8928ZM98.3638 253.738V252.595L103.004 247.661C103.32 247.334 103.565 247.04 103.739 246.778C103.913 246.517 104.033 246.272 104.098 246.043C104.175 245.804 104.213 245.553 104.213 245.292C104.213 244.78 104.006 244.355 103.592 244.017C103.178 243.68 102.655 243.511 102.024 243.511C101.501 243.511 101.011 243.614 100.553 243.821C100.096 244.028 99.5892 244.388 99.0337 244.899L98.1514 243.821C98.7614 243.255 99.3877 242.83 100.03 242.547C100.684 242.264 101.359 242.122 102.056 242.122C102.786 242.122 103.429 242.253 103.984 242.514C104.54 242.776 104.97 243.14 105.275 243.609C105.591 244.066 105.749 244.595 105.749 245.194C105.749 245.575 105.7 245.929 105.602 246.256C105.503 246.571 105.335 246.909 105.095 247.268C104.855 247.617 104.518 248.02 104.082 248.477L100.357 252.399L105.977 252.382V253.738H98.3638Z" fill="#21212F"/>
<path d="M149.448 229.406L146.948 217.97H148.712L150.493 226.711L153.075 217.97H154.708L157.29 226.694L159.087 217.97H160.77L158.27 229.406H156.506L153.875 220.42L151.228 229.406H149.448ZM165.496 229.553C164.679 229.553 163.938 229.363 163.274 228.981C162.62 228.6 162.098 228.083 161.706 227.429C161.324 226.776 161.134 226.046 161.134 225.24C161.134 224.445 161.319 223.726 161.689 223.083C162.06 222.43 162.561 221.913 163.192 221.531C163.824 221.139 164.527 220.943 165.3 220.943C166.073 220.943 166.759 221.139 167.358 221.531C167.958 221.913 168.431 222.435 168.78 223.1C169.139 223.753 169.319 224.494 169.319 225.322V225.779H162.768C162.855 226.237 163.023 226.645 163.274 227.005C163.535 227.364 163.862 227.647 164.254 227.854C164.657 228.061 165.093 228.165 165.561 228.165C165.964 228.165 166.351 228.105 166.721 227.985C167.103 227.854 167.418 227.669 167.669 227.429L168.715 228.459C168.224 228.829 167.718 229.107 167.195 229.292C166.683 229.466 166.117 229.553 165.496 229.553ZM162.784 224.554H167.702C167.636 224.118 167.484 223.737 167.244 223.41C167.015 223.073 166.727 222.811 166.378 222.626C166.041 222.43 165.67 222.332 165.267 222.332C164.853 222.332 164.472 222.425 164.124 222.61C163.775 222.795 163.481 223.056 163.241 223.394C163.013 223.721 162.86 224.107 162.784 224.554ZM174.73 229.537C173.957 229.537 173.249 229.346 172.606 228.965C171.964 228.584 171.457 228.072 171.087 227.429C170.716 226.776 170.531 226.046 170.531 225.24C170.531 224.434 170.716 223.71 171.087 223.067C171.468 222.425 171.98 221.913 172.622 221.531C173.265 221.15 173.979 220.96 174.763 220.96C175.22 220.96 175.661 221.03 176.086 221.172C176.511 221.314 176.903 221.521 177.262 221.793V217.97L178.896 217.659V229.406H177.279V228.606C176.571 229.227 175.721 229.537 174.73 229.537ZM174.942 228.116C175.422 228.116 175.857 228.028 176.249 227.854C176.652 227.68 176.99 227.429 177.262 227.103V223.361C176.99 223.056 176.652 222.817 176.249 222.642C175.857 222.457 175.422 222.365 174.942 222.365C174.42 222.365 173.946 222.49 173.521 222.74C173.096 222.991 172.759 223.334 172.508 223.77C172.258 224.194 172.132 224.679 172.132 225.224C172.132 225.768 172.258 226.258 172.508 226.694C172.759 227.13 173.096 227.478 173.521 227.74C173.946 227.99 174.42 228.116 174.942 228.116Z" fill="#21212F"/>
<path opacity="0.5" d="M158.408 253.738V243.985L156.35 244.85V243.413L158.997 242.302H160.026V253.738H158.408ZM165.817 253.918C165 253.918 164.232 253.776 163.513 253.493C162.805 253.199 162.19 252.78 161.667 252.235L162.729 251.222C163.186 251.701 163.649 252.045 164.118 252.252C164.597 252.448 165.158 252.546 165.801 252.546C166.312 252.546 166.764 252.458 167.157 252.284C167.56 252.11 167.87 251.87 168.088 251.565C168.306 251.26 168.415 250.906 168.415 250.503C168.415 250.133 168.317 249.806 168.121 249.523C167.935 249.229 167.679 249.006 167.353 248.853C167.037 248.69 166.661 248.608 166.225 248.608H164.837V247.285H166.111C166.688 247.285 167.151 247.116 167.5 246.778C167.848 246.441 168.022 246 168.022 245.455C168.022 245.096 167.924 244.769 167.728 244.475C167.532 244.181 167.26 243.952 166.912 243.789C166.574 243.614 166.187 243.527 165.752 243.527C165.174 243.527 164.662 243.631 164.216 243.838C163.78 244.034 163.328 244.382 162.86 244.883L161.798 243.87C162.321 243.304 162.925 242.874 163.611 242.58C164.297 242.275 165.022 242.122 165.784 242.122C166.525 242.122 167.178 242.258 167.745 242.53C168.322 242.803 168.774 243.184 169.101 243.674C169.438 244.153 169.607 244.698 169.607 245.308C169.607 245.907 169.406 246.446 169.003 246.925C168.611 247.394 168.093 247.72 167.451 247.906C168.224 248.069 168.839 248.396 169.297 248.886C169.754 249.365 169.983 249.932 169.983 250.585C169.983 251.228 169.803 251.8 169.444 252.301C169.095 252.802 168.605 253.199 167.973 253.493C167.342 253.776 166.623 253.918 165.817 253.918Z" fill="#21212F"/>
<path d="M216.758 229.406V219.489H212.739V217.97H222.492V219.489H218.473V229.406H216.758ZM223.732 229.406V217.97L225.366 217.61V221.94C226.008 221.265 226.841 220.927 227.865 220.927C228.508 220.927 229.069 221.063 229.548 221.335C230.038 221.608 230.419 221.989 230.692 222.479C230.975 222.969 231.116 223.536 231.116 224.178V229.406H229.483V224.456C229.483 223.802 229.298 223.29 228.927 222.92C228.557 222.539 228.05 222.348 227.408 222.348C226.972 222.348 226.58 222.441 226.231 222.626C225.883 222.811 225.594 223.078 225.366 223.427V229.406H223.732ZM236.14 229.57C235.498 229.57 234.931 229.433 234.441 229.161C233.951 228.889 233.57 228.508 233.298 228.018C233.025 227.517 232.889 226.945 232.889 226.302V221.09H234.507V226.024C234.507 226.678 234.692 227.195 235.062 227.576C235.443 227.958 235.95 228.148 236.582 228.148C237.028 228.148 237.426 228.056 237.774 227.87C238.123 227.674 238.406 227.402 238.624 227.054V221.09H240.258V229.406H238.624V228.557C237.981 229.232 237.153 229.57 236.14 229.57Z" fill="#21212F"/>
<path opacity="0.5" d="M221.428 253.738V243.985L219.369 244.85V243.413L222.016 242.302H223.045V253.738H221.428ZM231.026 253.738V250.83H224.54V249.539L230.83 242.302H232.643V249.458H234.032V250.83H232.643V253.738H231.026ZM226.467 249.458H231.026V244.213L226.467 249.458Z" fill="#21212F"/>
<path d="M274.64 229.406V217.97H283.103V219.473H276.356V222.985H280.8V224.44H276.356V229.406H274.64ZM283.666 229.406V221.09H285.3V222.152C285.562 221.76 285.883 221.455 286.264 221.237C286.656 221.009 287.097 220.894 287.587 220.894C287.925 220.905 288.203 220.954 288.421 221.041V222.512C288.268 222.446 288.11 222.403 287.947 222.381C287.784 222.348 287.62 222.332 287.457 222.332C286.978 222.332 286.553 222.463 286.182 222.724C285.812 222.975 285.518 223.345 285.3 223.835V229.406H283.666ZM289.729 229.406V221.09H291.363V229.406H289.729ZM290.546 219.751C290.274 219.751 290.04 219.653 289.844 219.456C289.648 219.25 289.55 219.01 289.55 218.738C289.55 218.454 289.648 218.22 289.844 218.035C290.04 217.839 290.274 217.741 290.546 217.741C290.829 217.741 291.069 217.839 291.265 218.035C291.461 218.22 291.559 218.454 291.559 218.738C291.559 219.01 291.461 219.25 291.265 219.456C291.069 219.653 290.829 219.751 290.546 219.751Z" fill="#21212F"/>
<path opacity="0.5" d="M277.947 253.738V243.985L275.889 244.85V243.413L278.536 242.302H279.565V253.738H277.947ZM285.193 253.918C283.668 253.918 282.344 253.401 281.222 252.366L282.186 251.288C282.677 251.734 283.161 252.061 283.64 252.268C284.131 252.464 284.664 252.562 285.242 252.562C285.764 252.562 286.216 252.464 286.598 252.268C286.979 252.061 287.278 251.778 287.496 251.418C287.714 251.048 287.823 250.629 287.823 250.16C287.823 249.474 287.578 248.919 287.088 248.494C286.609 248.069 285.982 247.857 285.209 247.857C284.817 247.857 284.425 247.911 284.033 248.02C283.651 248.118 283.254 248.271 282.84 248.477L281.745 248.151L282.007 242.302H288.803V243.658H283.346L283.183 247.203C283.597 246.996 284 246.849 284.392 246.762C284.784 246.664 285.198 246.615 285.634 246.615C286.396 246.615 287.055 246.762 287.611 247.056C288.177 247.339 288.618 247.742 288.934 248.265C289.25 248.788 289.408 249.392 289.408 250.079C289.408 250.841 289.228 251.511 288.869 252.088C288.52 252.655 288.03 253.101 287.398 253.428C286.766 253.755 286.031 253.918 285.193 253.918Z" fill="#21212F"/>
<path d="M329.528 229.57C328.613 229.57 327.731 229.39 326.881 229.03C326.032 228.671 325.28 228.165 324.627 227.511L325.672 226.302C326.293 226.912 326.925 227.364 327.568 227.658C328.221 227.952 328.902 228.099 329.61 228.099C330.165 228.099 330.65 228.023 331.064 227.87C331.489 227.707 331.815 227.478 332.044 227.184C332.273 226.89 332.387 226.558 332.387 226.188C332.387 225.676 332.208 225.284 331.848 225.011C331.489 224.739 330.895 224.532 330.067 224.391L328.156 224.08C327.11 223.895 326.326 223.557 325.803 223.067C325.291 222.577 325.035 221.924 325.035 221.107C325.035 220.453 325.21 219.881 325.558 219.391C325.907 218.89 326.397 218.503 327.028 218.231C327.671 217.959 328.412 217.823 329.25 217.823C330.078 217.823 330.89 217.959 331.685 218.231C332.491 218.493 333.215 218.874 333.858 219.375L332.91 220.682C331.679 219.745 330.432 219.277 329.169 219.277C328.668 219.277 328.232 219.348 327.862 219.489C327.491 219.631 327.203 219.832 326.996 220.094C326.789 220.344 326.685 220.638 326.685 220.976C326.685 221.444 326.843 221.804 327.159 222.054C327.475 222.294 327.998 222.468 328.728 222.577L330.574 222.887C331.783 223.083 332.67 223.437 333.237 223.949C333.803 224.461 334.086 225.164 334.086 226.057C334.086 226.754 333.896 227.369 333.515 227.903C333.133 228.426 332.6 228.834 331.913 229.129C331.227 229.423 330.432 229.57 329.528 229.57ZM338.349 229.553C337.75 229.553 337.222 229.45 336.765 229.243C336.307 229.025 335.948 228.726 335.686 228.344C335.425 227.963 335.294 227.522 335.294 227.021C335.294 226.237 335.594 225.621 336.193 225.175C336.792 224.717 337.614 224.489 338.66 224.489C339.477 224.489 340.234 224.646 340.931 224.962V224.08C340.931 223.481 340.757 223.034 340.408 222.74C340.07 222.446 339.569 222.299 338.905 222.299C338.524 222.299 338.126 222.359 337.712 222.479C337.298 222.588 336.835 222.762 336.324 223.002L335.719 221.776C336.351 221.482 336.939 221.27 337.484 221.139C338.028 220.998 338.578 220.927 339.134 220.927C340.212 220.927 341.045 221.183 341.633 221.695C342.232 222.207 342.532 222.936 342.532 223.884V229.406H340.931V228.687C340.561 228.981 340.163 229.199 339.738 229.341C339.313 229.482 338.85 229.553 338.349 229.553ZM336.863 226.988C336.863 227.391 337.032 227.718 337.369 227.969C337.718 228.219 338.17 228.344 338.725 228.344C339.161 228.344 339.558 228.279 339.918 228.148C340.288 228.018 340.626 227.816 340.931 227.544V226.139C340.615 225.954 340.283 225.823 339.934 225.747C339.597 225.659 339.215 225.616 338.791 225.616C338.192 225.616 337.718 225.741 337.369 225.992C337.032 226.231 336.863 226.563 336.863 226.988ZM347.737 229.553C346.931 229.553 346.315 229.368 345.891 228.998C345.466 228.617 345.253 228.067 345.253 227.348V222.463H343.489V221.09H345.253V218.966L346.871 218.574V221.09H349.322V222.463H346.871V226.972C346.871 227.397 346.964 227.702 347.149 227.887C347.345 228.061 347.661 228.148 348.096 228.148C348.325 228.148 348.527 228.132 348.701 228.099C348.886 228.067 349.082 228.018 349.289 227.952V229.325C349.071 229.401 348.815 229.455 348.521 229.488C348.238 229.532 347.976 229.553 347.737 229.553Z" fill="#21212F"/>
<path opacity="0.5" d="M331.963 253.738V243.985L329.905 244.85V243.413L332.551 242.302H333.581V253.738H331.963ZM340.107 253.902C339.192 253.902 338.386 253.667 337.689 253.199C336.992 252.731 336.447 252.083 336.055 251.255C335.663 250.416 335.467 249.447 335.467 248.347C335.467 247.094 335.685 246.005 336.12 245.079C336.556 244.143 337.166 243.418 337.95 242.906C338.745 242.383 339.671 242.122 340.728 242.122C341.25 242.122 341.768 242.204 342.28 242.367C342.803 242.52 343.255 242.743 343.636 243.037L342.803 244.197C342.465 243.979 342.111 243.816 341.741 243.707C341.381 243.598 341 243.543 340.597 243.543C339.856 243.543 339.219 243.734 338.685 244.115C338.163 244.486 337.76 245.025 337.476 245.733C337.193 246.441 337.046 247.296 337.035 248.298C337.438 247.764 337.923 247.35 338.489 247.056C339.056 246.751 339.644 246.599 340.254 246.599C341.005 246.599 341.67 246.751 342.247 247.056C342.824 247.35 343.276 247.764 343.603 248.298C343.93 248.831 344.093 249.441 344.093 250.128C344.093 250.846 343.919 251.495 343.57 252.072C343.222 252.638 342.748 253.085 342.149 253.412C341.55 253.738 340.869 253.902 340.107 253.902ZM340.025 247.857C339.459 247.857 338.92 247.987 338.408 248.249C337.907 248.51 337.471 248.87 337.101 249.327C337.199 249.97 337.378 250.536 337.64 251.026C337.912 251.505 338.255 251.881 338.669 252.154C339.083 252.415 339.546 252.546 340.058 252.546C340.537 252.546 340.962 252.442 341.332 252.235C341.702 252.028 341.991 251.745 342.198 251.386C342.416 251.026 342.525 250.618 342.525 250.16C342.525 249.714 342.416 249.316 342.198 248.968C341.991 248.619 341.697 248.347 341.316 248.151C340.945 247.955 340.515 247.857 340.025 247.857Z" fill="#21212F"/>
<path d="M387.548 229.57C386.633 229.57 385.751 229.39 384.901 229.03C384.051 228.671 383.3 228.165 382.646 227.511L383.692 226.302C384.313 226.912 384.945 227.364 385.587 227.658C386.241 227.952 386.921 228.099 387.629 228.099C388.185 228.099 388.67 228.023 389.083 227.87C389.508 227.707 389.835 227.478 390.064 227.184C390.292 226.89 390.407 226.558 390.407 226.188C390.407 225.676 390.227 225.284 389.868 225.011C389.508 224.739 388.915 224.532 388.087 224.391L386.175 224.08C385.13 223.895 384.345 223.557 383.823 223.067C383.311 222.577 383.055 221.924 383.055 221.107C383.055 220.453 383.229 219.881 383.578 219.391C383.926 218.89 384.416 218.503 385.048 218.231C385.691 217.959 386.431 217.823 387.27 217.823C388.098 217.823 388.909 217.959 389.704 218.231C390.51 218.493 391.235 218.874 391.877 219.375L390.93 220.682C389.699 219.745 388.452 219.277 387.188 219.277C386.687 219.277 386.252 219.348 385.881 219.489C385.511 219.631 385.222 219.832 385.015 220.094C384.808 220.344 384.705 220.638 384.705 220.976C384.705 221.444 384.863 221.804 385.179 222.054C385.495 222.294 386.017 222.468 386.747 222.577L388.593 222.887C389.802 223.083 390.69 223.437 391.256 223.949C391.823 224.461 392.106 225.164 392.106 226.057C392.106 226.754 391.915 227.369 391.534 227.903C391.153 228.426 390.619 228.834 389.933 229.129C389.247 229.423 388.452 229.57 387.548 229.57ZM396.718 229.57C396.075 229.57 395.509 229.433 395.019 229.161C394.529 228.889 394.147 228.508 393.875 228.018C393.603 227.517 393.467 226.945 393.467 226.302V221.09H395.084V226.024C395.084 226.678 395.269 227.195 395.64 227.576C396.021 227.958 396.527 228.148 397.159 228.148C397.606 228.148 398.003 228.056 398.352 227.87C398.7 227.674 398.983 227.402 399.201 227.054V221.09H400.835V229.406H399.201V228.557C398.559 229.232 397.731 229.57 396.718 229.57ZM402.769 229.406V221.09H404.403V221.94C405.046 221.265 405.879 220.927 406.903 220.927C407.545 220.927 408.106 221.063 408.585 221.335C409.076 221.608 409.457 221.989 409.729 222.479C410.012 222.969 410.154 223.536 410.154 224.178V229.406H408.52V224.456C408.52 223.802 408.335 223.29 407.965 222.92C407.605 222.539 407.099 222.348 406.445 222.348C406.009 222.348 405.617 222.441 405.269 222.626C404.92 222.811 404.632 223.078 404.403 223.427V229.406H402.769Z" fill="#21212F"/>
<path opacity="0.5" d="M391.983 253.738V243.985L389.924 244.85V243.413L392.571 242.302H393.6V253.738H391.983ZM396.352 253.738L401.809 243.69H395.143V242.302H403.508V243.494L398.182 253.738H396.352Z" fill="#21212F"/>
</svg>
