<svg width="288" height="191" viewBox="0 0 288 191" fill="none" xmlns="http://www.w3.org/2000/svg">
<rect width="286" height="120.786" transform="translate(1)" fill="white"/>
<path d="M5.69531 100.764C49.6149 104.465 157.751 96.7499 238.938 36.2852" stroke="#8E48F3" stroke-width="5.5534" stroke-linecap="round"/>
<circle cx="59.3112" cy="99.9596" r="6.94175" fill="#8E48F3" stroke="white" stroke-width="2.7767"/>
<circle cx="148.163" cy="81.9128" r="6.94175" fill="#8E48F3" stroke="white" stroke-width="2.7767"/>
<circle cx="235.632" cy="38.8737" r="6.94175" fill="#8E48F3" stroke="white" stroke-width="2.7767"/>
<path d="M1.84472 158.277V146.615H4.19381L7.84239 154.079L11.491 146.615H13.8234V158.277H12.174V148.748L7.82573 157.444L3.47742 148.748V158.277H1.84472ZM20.0265 158.444C19.2046 158.444 18.4548 158.25 17.7773 157.861C17.1109 157.472 16.5833 156.945 16.1946 156.278C15.8059 155.612 15.6115 154.868 15.6115 154.046C15.6115 153.224 15.8059 152.48 16.1946 151.813C16.5833 151.147 17.1109 150.619 17.7773 150.23C18.4548 149.831 19.2046 149.631 20.0265 149.631C20.8595 149.631 21.6092 149.831 22.2756 150.23C22.942 150.619 23.4696 151.147 23.8583 151.813C24.247 152.48 24.4414 153.224 24.4414 154.046C24.4414 154.868 24.247 155.612 23.8583 156.278C23.4696 156.945 22.942 157.472 22.2756 157.861C21.6092 158.25 20.8595 158.444 20.0265 158.444ZM20.0265 156.978C20.5485 156.978 21.0205 156.85 21.4426 156.595C21.8646 156.328 22.1978 155.973 22.4422 155.528C22.6865 155.084 22.8087 154.584 22.8087 154.029C22.8087 153.485 22.681 152.996 22.4255 152.563C22.1812 152.119 21.848 151.763 21.4259 151.497C21.015 151.23 20.5485 151.097 20.0265 151.097C19.5044 151.097 19.0324 151.23 18.6103 151.497C18.1994 151.763 17.8662 152.119 17.6107 152.563C17.3664 152.996 17.2442 153.485 17.2442 154.029C17.2442 154.584 17.3664 155.084 17.6107 155.528C17.8551 155.973 18.1883 156.328 18.6103 156.595C19.0324 156.85 19.5044 156.978 20.0265 156.978ZM26.0168 158.277V149.797H27.6829V150.664C28.3382 149.975 29.1878 149.631 30.2319 149.631C30.8872 149.631 31.4592 149.77 31.9479 150.047C32.4477 150.325 32.8364 150.714 33.1141 151.213C33.4029 151.713 33.5472 152.291 33.5472 152.946V158.277H31.8812V153.229C31.8812 152.563 31.6924 152.041 31.3148 151.663C30.9483 151.275 30.4318 151.08 29.7654 151.08C29.3211 151.08 28.9213 151.175 28.5658 151.363C28.2104 151.552 27.9161 151.824 27.6829 152.18V158.277H26.0168Z" fill="#21212F"/>
<path opacity="0.5" d="M14.0092 184.984V173.381L11.5601 174.411V172.7L14.7089 171.379H15.9334V184.984H14.0092ZM20.1212 184.984V173.381L17.6721 174.411V172.7L20.8209 171.379H22.0454V184.984H20.1212Z" fill="#21212F"/>
<path d="M52.8739 158.277V148.165H48.7755V146.615H58.7216V148.165H54.6232V158.277H52.8739ZM62.5354 158.444C61.8801 158.444 61.3025 158.305 60.8027 158.027C60.3029 157.75 59.9142 157.361 59.6365 156.861C59.3588 156.35 59.22 155.767 59.22 155.112V149.797H60.8693V154.829C60.8693 155.495 61.0582 156.023 61.4358 156.411C61.8245 156.8 62.341 156.995 62.9852 156.995C63.4406 156.995 63.846 156.9 64.2014 156.711C64.5568 156.511 64.8456 156.234 65.0677 155.878V149.797H66.7337V158.277H65.0677V157.411C64.4124 158.1 63.5683 158.444 62.5354 158.444ZM72.7711 158.427C71.9381 158.427 71.1828 158.233 70.5053 157.844C69.8389 157.455 69.3058 156.928 68.9059 156.261C68.5172 155.595 68.3228 154.851 68.3228 154.029C68.3228 153.218 68.5116 152.485 68.8893 151.83C69.2669 151.163 69.7778 150.636 70.422 150.247C71.0662 149.847 71.7826 149.647 72.5712 149.647C73.3598 149.647 74.0595 149.847 74.6704 150.247C75.2812 150.636 75.7644 151.169 76.1198 151.847C76.4863 152.513 76.6696 153.268 76.6696 154.112V154.579H69.9888C70.0777 155.045 70.2499 155.462 70.5053 155.828C70.7719 156.195 71.1051 156.484 71.5049 156.695C71.9159 156.906 72.3601 157.011 72.8377 157.011C73.2487 157.011 73.643 156.95 74.0206 156.828C74.4093 156.695 74.7314 156.506 74.9869 156.261L76.0532 157.311C75.5533 157.689 75.0369 157.972 74.5038 158.161C73.9817 158.338 73.4042 158.427 72.7711 158.427ZM70.0055 153.329H75.0202C74.9536 152.885 74.7981 152.496 74.5537 152.163C74.3205 151.819 74.0262 151.552 73.6707 151.363C73.3264 151.163 72.9488 151.063 72.5379 151.063C72.1158 151.063 71.7271 151.158 71.3716 151.347C71.0162 151.536 70.7163 151.802 70.472 152.146C70.2387 152.48 70.0832 152.874 70.0055 153.329Z" fill="#21212F"/>
<path opacity="0.5" d="M57.3178 184.984V173.381L54.8687 174.411V172.7L58.0175 171.379H59.242V184.984H57.3178ZM61.4472 184.984V183.624L66.9673 177.754C67.3431 177.365 67.6346 177.015 67.842 176.704C68.0493 176.393 68.1918 176.102 68.2696 175.83C68.3603 175.545 68.4056 175.246 68.4056 174.936C68.4056 174.326 68.1594 173.821 67.667 173.419C67.1746 173.018 66.5526 172.817 65.8011 172.817C65.1791 172.817 64.596 172.94 64.0518 173.186C63.5075 173.432 62.905 173.86 62.2441 174.469L61.1945 173.186C61.9202 172.512 62.6653 172.007 63.4298 171.67C64.2073 171.333 65.0106 171.165 65.84 171.165C66.7081 171.165 67.4726 171.32 68.1335 171.631C68.7944 171.942 69.3062 172.376 69.669 172.934C70.0448 173.478 70.2327 174.106 70.2327 174.819C70.2327 175.272 70.1744 175.694 70.0578 176.082C69.9411 176.458 69.7403 176.86 69.4552 177.287C69.1701 177.702 68.7684 178.181 68.2501 178.726L63.8185 183.391L70.5048 183.371V184.984H61.4472Z" fill="#21212F"/>
<path d="M94.7143 158.277L92.1653 146.615H93.9646L95.7806 155.528L98.4129 146.615H100.079L102.711 155.512L104.544 146.615H106.26L103.711 158.277H101.912L99.2293 149.114L96.5303 158.277H94.7143ZM111.079 158.427C110.246 158.427 109.491 158.233 108.814 157.844C108.147 157.455 107.614 156.928 107.214 156.261C106.825 155.595 106.631 154.851 106.631 154.029C106.631 153.218 106.82 152.485 107.198 151.83C107.575 151.163 108.086 150.636 108.73 150.247C109.374 149.847 110.091 149.647 110.879 149.647C111.668 149.647 112.368 149.847 112.979 150.247C113.589 150.636 114.073 151.169 114.428 151.847C114.795 152.513 114.978 153.268 114.978 154.112V154.579H108.297C108.386 155.045 108.558 155.462 108.814 155.828C109.08 156.195 109.413 156.484 109.813 156.695C110.224 156.906 110.668 157.011 111.146 157.011C111.557 157.011 111.951 156.95 112.329 156.828C112.718 156.695 113.04 156.506 113.295 156.261L114.361 157.311C113.862 157.689 113.345 157.972 112.812 158.161C112.29 158.338 111.712 158.427 111.079 158.427ZM108.314 153.329H113.328C113.262 152.885 113.106 152.496 112.862 152.163C112.629 151.819 112.334 151.552 111.979 151.363C111.635 151.163 111.257 151.063 110.846 151.063C110.424 151.063 110.035 151.158 109.68 151.347C109.324 151.536 109.025 151.802 108.78 152.146C108.547 152.48 108.392 152.874 108.314 153.329ZM120.496 158.411C119.707 158.411 118.985 158.216 118.33 157.828C117.674 157.439 117.158 156.917 116.78 156.261C116.403 155.595 116.214 154.851 116.214 154.029C116.214 153.207 116.403 152.468 116.78 151.813C117.169 151.158 117.691 150.636 118.346 150.247C119.002 149.858 119.729 149.664 120.529 149.664C120.995 149.664 121.445 149.736 121.878 149.881C122.312 150.025 122.711 150.236 123.078 150.514V146.615L124.744 146.299V158.277H123.095V157.461C122.373 158.094 121.506 158.411 120.496 158.411ZM120.712 156.961C121.201 156.961 121.645 156.872 122.045 156.695C122.456 156.517 122.8 156.261 123.078 155.928V152.113C122.8 151.802 122.456 151.558 122.045 151.38C121.645 151.191 121.201 151.097 120.712 151.097C120.179 151.097 119.696 151.225 119.263 151.48C118.83 151.735 118.485 152.085 118.23 152.53C117.974 152.963 117.847 153.457 117.847 154.012C117.847 154.568 117.974 155.067 118.23 155.512C118.485 155.956 118.83 156.311 119.263 156.578C119.696 156.833 120.179 156.961 120.712 156.961Z" fill="#21212F"/>
<path opacity="0.5" d="M102.626 184.984V173.381L100.177 174.411V172.7L103.326 171.379H104.551V184.984H102.626ZM111.44 185.198C110.468 185.198 109.555 185.03 108.699 184.693C107.857 184.343 107.125 183.844 106.503 183.196L107.767 181.991C108.311 182.561 108.861 182.969 109.419 183.216C109.989 183.449 110.656 183.565 111.421 183.565C112.03 183.565 112.567 183.462 113.034 183.254C113.513 183.047 113.883 182.762 114.142 182.399C114.401 182.036 114.531 181.615 114.531 181.136C114.531 180.695 114.414 180.307 114.181 179.97C113.96 179.62 113.656 179.354 113.267 179.173C112.891 178.978 112.444 178.881 111.926 178.881H110.274V177.307H111.79C112.477 177.307 113.027 177.106 113.442 176.704C113.857 176.303 114.064 175.778 114.064 175.13C114.064 174.702 113.947 174.314 113.714 173.964C113.481 173.614 113.157 173.342 112.742 173.147C112.341 172.94 111.881 172.836 111.362 172.836C110.676 172.836 110.067 172.959 109.535 173.206C109.017 173.439 108.479 173.854 107.922 174.45L106.659 173.244C107.281 172.571 108 172.059 108.816 171.709C109.632 171.346 110.494 171.165 111.401 171.165C112.282 171.165 113.06 171.327 113.734 171.651C114.42 171.975 114.958 172.428 115.347 173.011C115.749 173.581 115.949 174.229 115.949 174.955C115.949 175.668 115.71 176.309 115.23 176.879C114.764 177.436 114.148 177.825 113.384 178.045C114.304 178.24 115.036 178.629 115.58 179.212C116.124 179.782 116.397 180.456 116.397 181.233C116.397 181.998 116.183 182.678 115.755 183.274C115.34 183.87 114.757 184.343 114.006 184.693C113.254 185.03 112.399 185.198 111.44 185.198Z" fill="#21212F"/>
<path d="M144.714 158.277V148.165H140.616V146.615H150.562V148.165H146.464V158.277H144.714ZM151.826 158.277V146.615L153.492 146.249V150.664C154.147 149.975 154.997 149.631 156.041 149.631C156.696 149.631 157.268 149.77 157.757 150.047C158.257 150.325 158.646 150.714 158.923 151.213C159.212 151.713 159.356 152.291 159.356 152.946V158.277H157.69V153.229C157.69 152.563 157.502 152.041 157.124 151.663C156.746 151.275 156.23 151.08 155.575 151.08C155.13 151.08 154.73 151.175 154.375 151.363C154.02 151.552 153.725 151.824 153.492 152.18V158.277H151.826ZM164.479 158.444C163.824 158.444 163.247 158.305 162.747 158.027C162.247 157.75 161.858 157.361 161.581 156.861C161.303 156.35 161.164 155.767 161.164 155.112V149.797H162.813V154.829C162.813 155.495 163.002 156.023 163.38 156.411C163.769 156.8 164.285 156.995 164.929 156.995C165.385 156.995 165.79 156.9 166.145 156.711C166.501 156.511 166.79 156.234 167.012 155.878V149.797H168.678V158.277H167.012V157.411C166.357 158.1 165.512 158.444 164.479 158.444Z" fill="#21212F"/>
<path opacity="0.5" d="M148.435 184.984V173.381L145.986 174.411V172.7L149.135 171.379H150.359V184.984H148.435ZM159.853 184.984V181.525H152.137V179.989L159.62 171.379H161.777V179.892H163.43V181.525H161.777V184.984H159.853ZM154.43 179.892H159.853V173.653L154.43 179.892Z" fill="#21212F"/>
<path d="M185.384 158.277V146.615H194.014V148.148H187.134V151.73H191.665V153.213H187.134V158.277H185.384ZM194.588 158.277V149.797H196.254V150.88C196.521 150.48 196.848 150.169 197.237 149.947C197.637 149.714 198.087 149.597 198.587 149.597C198.931 149.608 199.214 149.658 199.436 149.747V151.247C199.281 151.18 199.12 151.136 198.953 151.113C198.787 151.08 198.62 151.063 198.453 151.063C197.965 151.063 197.531 151.197 197.154 151.463C196.776 151.719 196.476 152.096 196.254 152.596V158.277H194.588ZM200.771 158.277V149.797H202.437V158.277H200.771ZM201.604 148.431C201.326 148.431 201.087 148.331 200.887 148.131C200.687 147.92 200.587 147.676 200.587 147.398C200.587 147.109 200.687 146.871 200.887 146.682C201.087 146.482 201.326 146.382 201.604 146.382C201.892 146.382 202.137 146.482 202.337 146.682C202.537 146.871 202.637 147.109 202.637 147.398C202.637 147.676 202.537 147.92 202.337 148.131C202.137 148.331 201.892 148.431 201.604 148.431Z" fill="#21212F"/>
<path opacity="0.5" d="M187.744 184.984V173.381L185.295 174.411V172.7L188.443 171.379H189.668V184.984H187.744ZM196.363 185.198C194.549 185.198 192.974 184.583 191.64 183.352L192.787 182.069C193.37 182.6 193.946 182.989 194.516 183.235C195.1 183.468 195.734 183.585 196.421 183.585C197.043 183.585 197.581 183.468 198.034 183.235C198.488 182.989 198.844 182.652 199.104 182.224C199.363 181.784 199.492 181.285 199.492 180.728C199.492 179.911 199.201 179.25 198.618 178.745C198.047 178.24 197.302 177.987 196.382 177.987C195.916 177.987 195.449 178.052 194.983 178.181C194.529 178.298 194.056 178.479 193.564 178.726L192.262 178.337L192.573 171.379H200.658V172.992H194.167L193.972 177.21C194.465 176.963 194.944 176.788 195.411 176.685C195.877 176.568 196.369 176.51 196.888 176.51C197.795 176.51 198.579 176.685 199.24 177.035C199.913 177.372 200.438 177.851 200.814 178.473C201.19 179.095 201.378 179.814 201.378 180.631C201.378 181.538 201.164 182.334 200.736 183.021C200.322 183.695 199.738 184.226 198.987 184.615C198.235 185.004 197.361 185.198 196.363 185.198Z" fill="#21212F"/>
<path d="M222.969 158.444C222.036 158.444 221.136 158.261 220.27 157.894C219.403 157.528 218.637 157.011 217.971 156.345L219.037 155.112C219.67 155.734 220.314 156.195 220.969 156.495C221.636 156.795 222.33 156.945 223.052 156.945C223.618 156.945 224.113 156.867 224.535 156.711C224.968 156.545 225.301 156.311 225.534 156.012C225.768 155.712 225.884 155.373 225.884 154.995C225.884 154.473 225.701 154.073 225.334 153.796C224.968 153.518 224.363 153.307 223.518 153.163L221.569 152.846C220.503 152.657 219.703 152.313 219.17 151.813C218.648 151.313 218.387 150.647 218.387 149.814C218.387 149.148 218.565 148.564 218.92 148.065C219.276 147.554 219.775 147.159 220.42 146.882C221.075 146.604 221.83 146.465 222.685 146.465C223.53 146.465 224.357 146.604 225.168 146.882C225.99 147.148 226.728 147.537 227.384 148.048L226.417 149.381C225.162 148.426 223.891 147.948 222.602 147.948C222.091 147.948 221.647 148.02 221.269 148.165C220.892 148.309 220.597 148.514 220.386 148.781C220.175 149.036 220.07 149.336 220.07 149.681C220.07 150.158 220.231 150.525 220.553 150.78C220.875 151.025 221.408 151.202 222.152 151.313L224.035 151.63C225.268 151.83 226.173 152.191 226.751 152.713C227.328 153.235 227.617 153.951 227.617 154.862C227.617 155.573 227.422 156.2 227.034 156.745C226.645 157.278 226.101 157.694 225.401 157.994C224.701 158.294 223.891 158.444 222.969 158.444ZM231.964 158.427C231.353 158.427 230.814 158.322 230.348 158.111C229.881 157.889 229.515 157.583 229.248 157.194C228.982 156.806 228.849 156.356 228.849 155.845C228.849 155.045 229.154 154.418 229.765 153.962C230.376 153.496 231.214 153.263 232.281 153.263C233.114 153.263 233.885 153.424 234.596 153.746V152.846C234.596 152.235 234.419 151.78 234.063 151.48C233.719 151.18 233.208 151.03 232.53 151.03C232.142 151.03 231.736 151.091 231.314 151.213C230.892 151.324 230.42 151.502 229.898 151.747L229.282 150.497C229.926 150.197 230.526 149.981 231.081 149.847C231.636 149.703 232.197 149.631 232.764 149.631C233.863 149.631 234.713 149.892 235.313 150.414C235.924 150.936 236.229 151.68 236.229 152.646V158.277H234.596V157.544C234.219 157.844 233.813 158.066 233.38 158.211C232.947 158.355 232.475 158.427 231.964 158.427ZM230.448 155.812C230.448 156.223 230.62 156.556 230.964 156.811C231.32 157.067 231.781 157.194 232.347 157.194C232.791 157.194 233.197 157.128 233.563 156.995C233.941 156.861 234.285 156.656 234.596 156.378V154.945C234.274 154.756 233.935 154.623 233.58 154.545C233.236 154.457 232.847 154.412 232.414 154.412C231.803 154.412 231.32 154.54 230.964 154.795C230.62 155.04 230.448 155.378 230.448 155.812ZM241.537 158.427C240.715 158.427 240.087 158.238 239.654 157.861C239.221 157.472 239.004 156.911 239.004 156.178V151.197H237.205V149.797H239.004V147.631L240.654 147.232V149.797H243.153V151.197H240.654V155.795C240.654 156.228 240.748 156.539 240.937 156.728C241.137 156.906 241.459 156.995 241.903 156.995C242.136 156.995 242.342 156.978 242.52 156.945C242.708 156.911 242.908 156.861 243.119 156.795V158.194C242.897 158.272 242.636 158.327 242.336 158.361C242.047 158.405 241.781 158.427 241.537 158.427Z" fill="#21212F"/>
<path opacity="0.5" d="M224.052 184.984V173.381L221.603 174.411V172.7L224.752 171.379H225.976V184.984H224.052ZM233.741 185.179C232.652 185.179 231.693 184.9 230.864 184.343C230.035 183.786 229.387 183.015 228.92 182.03C228.454 181.032 228.22 179.879 228.22 178.57C228.22 177.08 228.48 175.784 228.998 174.683C229.516 173.568 230.242 172.707 231.175 172.098C232.121 171.476 233.222 171.165 234.479 171.165C235.101 171.165 235.717 171.262 236.326 171.456C236.948 171.638 237.485 171.903 237.939 172.253L236.948 173.633C236.546 173.374 236.125 173.18 235.684 173.05C235.257 172.921 234.803 172.856 234.324 172.856C233.443 172.856 232.684 173.083 232.05 173.536C231.428 173.977 230.948 174.618 230.611 175.46C230.274 176.303 230.099 177.32 230.086 178.512C230.566 177.877 231.142 177.385 231.816 177.035C232.49 176.672 233.19 176.49 233.915 176.49C234.81 176.49 235.6 176.672 236.287 177.035C236.974 177.385 237.511 177.877 237.9 178.512C238.289 179.147 238.483 179.872 238.483 180.689C238.483 181.544 238.276 182.315 237.861 183.002C237.447 183.676 236.883 184.207 236.17 184.596C235.457 184.984 234.648 185.179 233.741 185.179ZM233.643 177.987C232.97 177.987 232.328 178.143 231.719 178.454C231.123 178.765 230.605 179.192 230.164 179.736C230.281 180.501 230.495 181.175 230.806 181.758C231.13 182.328 231.538 182.775 232.03 183.099C232.522 183.41 233.073 183.565 233.682 183.565C234.252 183.565 234.758 183.442 235.198 183.196C235.639 182.95 235.982 182.613 236.228 182.185C236.488 181.758 236.617 181.272 236.617 180.728C236.617 180.196 236.488 179.723 236.228 179.309C235.982 178.894 235.632 178.57 235.179 178.337C234.738 178.104 234.226 177.987 233.643 177.987Z" fill="#21212F"/>
<path d="M263 158.444C262.067 158.444 261.167 158.261 260.301 157.894C259.434 157.528 258.668 157.011 258.002 156.345L259.068 155.112C259.701 155.734 260.345 156.195 261 156.495C261.667 156.795 262.361 156.945 263.083 156.945C263.649 156.945 264.144 156.867 264.566 156.711C264.999 156.545 265.332 156.311 265.565 156.012C265.799 155.712 265.915 155.373 265.915 154.995C265.915 154.473 265.732 154.073 265.365 153.796C264.999 153.518 264.394 153.307 263.549 153.163L261.6 152.846C260.534 152.657 259.734 152.313 259.201 151.813C258.679 151.313 258.418 150.647 258.418 149.814C258.418 149.148 258.596 148.564 258.951 148.065C259.307 147.554 259.806 147.159 260.451 146.882C261.106 146.604 261.861 146.465 262.716 146.465C263.561 146.465 264.388 146.604 265.199 146.882C266.021 147.148 266.759 147.537 267.415 148.048L266.448 149.381C265.193 148.426 263.921 147.948 262.633 147.948C262.122 147.948 261.678 148.02 261.3 148.165C260.923 148.309 260.628 148.514 260.417 148.781C260.206 149.036 260.101 149.336 260.101 149.681C260.101 150.158 260.262 150.525 260.584 150.78C260.906 151.025 261.439 151.202 262.183 151.313L264.066 151.63C265.299 151.83 266.204 152.191 266.781 152.713C267.359 153.235 267.648 153.951 267.648 154.862C267.648 155.573 267.453 156.2 267.065 156.745C266.676 157.278 266.132 157.694 265.432 157.994C264.732 158.294 263.921 158.444 263 158.444ZM272.351 158.444C271.695 158.444 271.118 158.305 270.618 158.027C270.118 157.75 269.729 157.361 269.452 156.861C269.174 156.35 269.035 155.767 269.035 155.112V149.797H270.685V154.829C270.685 155.495 270.873 156.023 271.251 156.411C271.64 156.8 272.156 156.995 272.801 156.995C273.256 156.995 273.661 156.9 274.017 156.711C274.372 156.511 274.661 156.234 274.883 155.878V149.797H276.549V158.277H274.883V157.411C274.228 158.1 273.384 158.444 272.351 158.444ZM278.521 158.277V149.797H280.187V150.664C280.843 149.975 281.692 149.631 282.736 149.631C283.392 149.631 283.964 149.77 284.452 150.047C284.952 150.325 285.341 150.714 285.619 151.213C285.907 151.713 286.052 152.291 286.052 152.946V158.277H284.386V153.229C284.386 152.563 284.197 152.041 283.819 151.663C283.453 151.275 282.936 151.08 282.27 151.08C281.826 151.08 281.426 151.175 281.07 151.363C280.715 151.552 280.421 151.824 280.187 152.18V158.277H278.521Z" fill="#21212F"/>
<path opacity="0.5" d="M266.365 184.984V173.381L263.916 174.411V172.7L267.064 171.379H268.289V184.984H266.365ZM271.563 184.984L278.055 173.031H270.125V171.379H280.076V172.797L273.74 184.984H271.563Z" fill="#21212F"/>
</svg>
