<svg width="141" height="142" viewBox="0 0 141 142" fill="none" xmlns="http://www.w3.org/2000/svg">
<path d="M59.468 76.6842C57.5091 76.6842 55.7798 76.3698 54.2804 75.741C52.8051 75.088 51.6443 74.1932 50.7978 73.0565C49.9755 71.9198 49.5644 70.6018 49.5644 69.1023C49.5644 68.2075 49.7579 67.3731 50.1448 66.5992C50.556 65.8253 51.1243 65.1481 51.8498 64.5677C52.5754 63.9873 53.4098 63.5519 54.353 63.2617C53.1437 62.778 52.1642 62.0525 51.4145 61.0851C50.6648 60.1177 50.2899 59.0415 50.2899 57.8565C50.2899 56.4537 50.689 55.1961 51.4871 54.0836C52.3094 52.9712 53.4098 52.1005 54.7883 51.4717C56.1668 50.8187 57.7267 50.4922 59.468 50.4922C61.2093 50.4922 62.7692 50.8187 64.1477 51.4717C65.5504 52.1005 66.6509 52.9712 67.4489 54.0836C68.247 55.1961 68.6461 56.4537 68.6461 57.8565C68.6461 59.0415 68.2712 60.1177 67.5215 61.0851C66.7718 62.0525 65.7923 62.778 64.5831 63.2617C66.01 63.7212 67.1587 64.471 68.0294 65.5109C68.9242 66.5508 69.3716 67.748 69.3716 69.1023C69.3716 70.6018 68.9484 71.9198 68.1019 73.0565C67.2797 74.1932 66.1188 75.088 64.6193 75.741C63.1441 76.3698 61.427 76.6842 59.468 76.6842ZM59.468 61.3753C60.1694 61.3753 60.7982 61.2423 61.3544 60.9763C61.9107 60.7102 62.346 60.3475 62.6604 59.888C62.9748 59.4043 63.132 58.8601 63.132 58.2555C63.132 57.6509 62.9748 57.1188 62.6604 56.6593C62.346 56.1756 61.9107 55.8008 61.3544 55.5347C60.7982 55.2687 60.1694 55.1357 59.468 55.1357C58.7667 55.1357 58.1379 55.2687 57.5816 55.5347C57.0254 55.8008 56.59 56.1756 56.2756 56.6593C55.9612 57.1188 55.804 57.6509 55.804 58.2555C55.804 58.8601 55.9612 59.4043 56.2756 59.888C56.59 60.3475 57.0254 60.7102 57.5816 60.9763C58.1379 61.2423 58.7667 61.3753 59.468 61.3753ZM59.468 72.0045C60.3145 72.0045 61.0521 71.8715 61.6809 71.6054C62.3097 71.3152 62.8055 70.9162 63.1683 70.4083C63.531 69.9004 63.7124 69.3321 63.7124 68.7033C63.7124 68.0503 63.531 67.4819 63.1683 66.9982C62.8055 66.4904 62.3097 66.1034 61.6809 65.8374C61.0521 65.5472 60.3145 65.4021 59.468 65.4021C58.6457 65.4021 57.9081 65.5472 57.2551 65.8374C56.6263 66.1034 56.1305 66.4904 55.7678 66.9982C55.405 67.4819 55.2236 68.0503 55.2236 68.7033C55.2236 69.3321 55.405 69.9004 55.7678 70.4083C56.1305 70.9162 56.6263 71.3152 57.2551 71.6054C57.9081 71.8715 58.6457 72.0045 59.468 72.0045ZM72.8415 76.2852V72.2947L83.5794 61.6655C83.9906 61.2786 84.3171 60.9037 84.5589 60.5409C84.8008 60.154 84.9822 59.767 85.1031 59.3801C85.224 58.9931 85.2845 58.6062 85.2845 58.2192C85.2845 57.3969 84.9217 56.7198 84.1962 56.1877C83.4948 55.6315 82.6121 55.3533 81.5479 55.3533C80.4113 55.3533 79.3471 55.5952 78.3556 56.0789C77.364 56.5384 76.2878 57.3365 75.1269 58.4732L72.0071 54.6641C73.4582 53.2856 74.9939 52.2456 76.6143 51.5443C78.2588 50.8429 79.9638 50.4922 81.7293 50.4922C83.5432 50.4922 85.1152 50.8066 86.4453 51.4354C87.7997 52.04 88.8517 52.8986 89.6014 54.0111C90.3511 55.0994 90.726 56.3812 90.726 57.8565C90.726 58.6545 90.6051 59.4285 90.3632 60.1782C90.1456 60.9037 89.7949 61.6172 89.3112 62.3185C88.8275 63.0199 88.1987 63.7454 87.4248 64.4951L80.0969 71.5691L91.0888 71.5329V76.2852H72.8415Z" fill="#21212F"/>
<path d="M46.1789 99.2852V91.2053H52.1349V92.2672H47.3909V94.6912H50.5074V95.7185H47.3909V98.2232H52.1811V99.2852H46.1789ZM52.5966 99.2852L54.8821 96.2725L52.689 93.4099H54.0395L55.5516 95.4184L57.0636 93.4099H58.368L56.1979 96.261L58.5065 99.2852H57.156L55.5285 97.1151L53.901 99.2852H52.5966ZM61.5154 99.389C60.9383 99.389 60.415 99.2544 59.9456 98.985C59.4839 98.7157 59.1145 98.3502 58.8375 97.8885C58.5682 97.4268 58.4335 96.9112 58.4335 96.3418C58.4335 95.78 58.5643 95.2722 58.826 94.8181C59.0876 94.3564 59.4416 93.9909 59.8879 93.7216C60.3342 93.4446 60.8306 93.3061 61.3769 93.3061C61.9233 93.3061 62.4081 93.4446 62.8313 93.7216C63.2545 93.9909 63.5893 94.3603 63.8355 94.8297C64.0894 95.2914 64.2164 95.8147 64.2164 96.3995V96.7227H59.5878C59.6494 97.0459 59.7686 97.3344 59.9456 97.5884C60.1303 97.8423 60.3612 98.0424 60.6382 98.1886C60.9229 98.3348 61.2307 98.4079 61.5616 98.4079C61.8463 98.4079 62.1195 98.3656 62.3811 98.2809C62.6505 98.1886 62.8736 98.0578 63.0506 97.8885L63.7893 98.6157C63.443 98.8773 63.0852 99.0735 62.7159 99.2044C62.3542 99.3275 61.954 99.389 61.5154 99.389ZM59.5993 95.857H63.0737C63.0275 95.5492 62.9198 95.2798 62.7505 95.049C62.5889 94.8104 62.385 94.6258 62.1387 94.4949C61.9002 94.3564 61.6385 94.2872 61.3538 94.2872C61.0614 94.2872 60.7921 94.3526 60.5458 94.4834C60.2996 94.6142 60.0918 94.7989 59.9225 95.0375C59.7609 95.2683 59.6532 95.5415 59.5993 95.857ZM65.3158 99.2852V93.4099H66.47V94.1602C66.6547 93.8832 66.8817 93.6677 67.151 93.5138C67.4281 93.3522 67.7397 93.2714 68.086 93.2714C68.3245 93.2791 68.5208 93.3137 68.6747 93.3753V94.4141C68.5669 94.368 68.4554 94.3372 68.3399 94.3218C68.2245 94.2987 68.1091 94.2872 67.9937 94.2872C67.6551 94.2872 67.355 94.3795 67.0933 94.5642C66.8317 94.7412 66.6239 95.0028 66.47 95.3491V99.2852H65.3158ZM72.0197 99.389C71.458 99.389 70.9462 99.2544 70.4845 98.985C70.0228 98.7157 69.6573 98.3502 69.388 97.8885C69.1263 97.4268 68.9955 96.9112 68.9955 96.3418C68.9955 95.7723 69.1302 95.2606 69.3995 94.8066C69.6688 94.3449 70.0305 93.9794 70.4845 93.71C70.9462 93.433 71.458 93.2945 72.0197 93.2945C72.466 93.2945 72.8931 93.3792 73.3009 93.5484C73.7165 93.7177 74.0743 93.9563 74.3744 94.2641L73.6588 95.0605C73.4356 94.8143 73.1855 94.6296 72.9085 94.5065C72.6315 94.3834 72.3429 94.3218 72.0428 94.3218C71.6888 94.3218 71.3656 94.4103 71.0732 94.5873C70.7885 94.7643 70.5615 95.0067 70.3922 95.3145C70.2229 95.6223 70.1383 95.9647 70.1383 96.3418C70.1383 96.7188 70.2229 97.0613 70.3922 97.3691C70.5615 97.6769 70.7923 97.9231 71.0848 98.1078C71.3772 98.2848 71.7042 98.3733 72.0659 98.3733C72.366 98.3733 72.6469 98.3156 72.9085 98.2001C73.1701 98.077 73.4164 97.9 73.6472 97.6692L74.3513 98.4079C74.0435 98.7234 73.6857 98.9658 73.2779 99.1351C72.8777 99.3044 72.4583 99.389 72.0197 99.389ZM75.2803 99.2852V93.4099H76.4346V99.2852H75.2803ZM75.8575 92.4634C75.6651 92.4634 75.4996 92.3942 75.3611 92.2557C75.2226 92.1095 75.1534 91.9402 75.1534 91.7478C75.1534 91.5477 75.2226 91.3823 75.3611 91.2515C75.4996 91.1129 75.6651 91.0437 75.8575 91.0437C76.0575 91.0437 76.2268 91.1129 76.3653 91.2515C76.5039 91.3823 76.5731 91.5477 76.5731 91.7478C76.5731 91.9402 76.5039 92.1095 76.3653 92.2557C76.2268 92.3942 76.0575 92.4634 75.8575 92.4634ZM79.814 99.4006C79.3061 99.4006 78.829 99.3275 78.3827 99.1813C77.9441 99.0274 77.5632 98.8119 77.24 98.5349L77.8748 97.7731C78.1749 98.0116 78.4827 98.1963 78.7982 98.3271C79.1214 98.4502 79.4485 98.5118 79.7794 98.5118C80.1949 98.5118 80.5335 98.431 80.7951 98.2694C81.0568 98.1078 81.1876 97.8962 81.1876 97.6346C81.1876 97.4191 81.1106 97.2498 80.9567 97.1267C80.8028 97.0036 80.5643 96.9189 80.2411 96.8727L79.1791 96.7227C78.5943 96.638 78.1557 96.4572 77.8633 96.1802C77.5709 95.9032 77.4247 95.5338 77.4247 95.0721C77.4247 94.7181 77.5208 94.4103 77.7132 94.1487C77.9056 93.8793 78.1749 93.6716 78.5212 93.5254C78.8675 93.3715 79.2715 93.2945 79.7332 93.2945C80.1564 93.2945 80.5643 93.3561 80.9567 93.4792C81.3492 93.6023 81.7262 93.7947 82.0879 94.0563L81.4992 94.8181C81.176 94.6027 80.8605 94.4449 80.5527 94.3449C80.2526 94.2449 79.9487 94.1948 79.6408 94.1948C79.2869 94.1948 79.0022 94.2718 78.7867 94.4257C78.5712 94.5719 78.4635 94.7643 78.4635 95.0028C78.4635 95.2183 78.5366 95.3876 78.6828 95.5107C78.8367 95.6261 79.0868 95.7069 79.4331 95.7531L80.495 95.9032C81.0798 95.9878 81.5223 96.1686 81.8224 96.4457C82.1225 96.715 82.2726 97.0805 82.2726 97.5422C82.2726 97.8962 82.1648 98.2155 81.9494 98.5003C81.7339 98.7773 81.4415 98.9966 81.0721 99.1582C80.7028 99.3198 80.2834 99.4006 79.814 99.4006ZM86.0323 99.389C85.4552 99.389 84.9319 99.2544 84.4625 98.985C84.0008 98.7157 83.6315 98.3502 83.3544 97.8885C83.0851 97.4268 82.9504 96.9112 82.9504 96.3418C82.9504 95.78 83.0813 95.2722 83.3429 94.8181C83.6045 94.3564 83.9585 93.9909 84.4048 93.7216C84.8511 93.4446 85.3475 93.3061 85.8938 93.3061C86.4402 93.3061 86.925 93.4446 87.3482 93.7216C87.7714 93.9909 88.1062 94.3603 88.3524 94.8297C88.6064 95.2914 88.7333 95.8147 88.7333 96.3995V96.7227H84.1047C84.1663 97.0459 84.2855 97.3344 84.4625 97.5884C84.6472 97.8423 84.8781 98.0424 85.1551 98.1886C85.4398 98.3348 85.7476 98.4079 86.0785 98.4079C86.3632 98.4079 86.6364 98.3656 86.898 98.2809C87.1674 98.1886 87.3905 98.0578 87.5675 97.8885L88.3062 98.6157C87.96 98.8773 87.6021 99.0735 87.2328 99.2044C86.8711 99.3275 86.471 99.389 86.0323 99.389ZM84.1163 95.857H87.5906C87.5444 95.5492 87.4367 95.2798 87.2674 95.049C87.1058 94.8104 86.9019 94.6258 86.6556 94.4949C86.4171 94.3564 86.1555 94.2872 85.8707 94.2872C85.5783 94.2872 85.309 94.3526 85.0628 94.4834C84.8165 94.6142 84.6087 94.7989 84.4394 95.0375C84.2778 95.2683 84.1701 95.5415 84.1163 95.857ZM91.909 99.4006C91.4011 99.4006 90.924 99.3275 90.4777 99.1813C90.0391 99.0274 89.6582 98.8119 89.335 98.5349L89.9698 97.7731C90.2699 98.0116 90.5777 98.1963 90.8932 98.3271C91.2164 98.4502 91.5435 98.5118 91.8744 98.5118C92.2899 98.5118 92.6285 98.431 92.8901 98.2694C93.1518 98.1078 93.2826 97.8962 93.2826 97.6346C93.2826 97.4191 93.2056 97.2498 93.0517 97.1267C92.8978 97.0036 92.6593 96.9189 92.3361 96.8727L91.2742 96.7227C90.6893 96.638 90.2507 96.4572 89.9583 96.1802C89.6659 95.9032 89.5197 95.5338 89.5197 95.0721C89.5197 94.7181 89.6159 94.4103 89.8082 94.1487C90.0006 93.8793 90.2699 93.6716 90.6162 93.5254C90.9625 93.3715 91.3665 93.2945 91.8282 93.2945C92.2514 93.2945 92.6593 93.3561 93.0517 93.4792C93.4442 93.6023 93.8212 93.7947 94.1829 94.0563L93.5942 94.8181C93.271 94.6027 92.9555 94.4449 92.6477 94.3449C92.3476 94.2449 92.0437 94.1948 91.7359 94.1948C91.3819 94.1948 91.0972 94.2718 90.8817 94.4257C90.6662 94.5719 90.5585 94.7643 90.5585 95.0028C90.5585 95.2183 90.6316 95.3876 90.7778 95.5107C90.9317 95.6261 91.1818 95.7069 91.5281 95.7531L92.59 95.9032C93.1748 95.9878 93.6173 96.1686 93.9174 96.4457C94.2175 96.715 94.3676 97.0805 94.3676 97.5422C94.3676 97.8962 94.2599 98.2155 94.0444 98.5003C93.8289 98.7773 93.5365 98.9966 93.1672 99.1582C92.7978 99.3198 92.3784 99.4006 91.909 99.4006Z" fill="#21212F"/>
<path d="M23.6745 120.3C10.6343 107.914 2.50391 90.4106 2.50391 71.0081C2.50391 55.5584 7.65896 41.3126 16.3431 29.8961C16.5508 29.6231 16.7605 29.3518 16.9721 29.082" stroke="white" stroke-width="4.94686" stroke-linecap="round"/>
<path d="M32.2227 127.203C43.1239 134.639 56.3005 138.986 70.4926 138.986C83.6405 138.986 95.9167 135.255 106.32 128.794" stroke="#CDF348" stroke-width="4.94686" stroke-linecap="round"/>
<path d="M23.6719 21.7152C33.6343 12.253 46.4625 5.77819 60.7204 3.72656" stroke="#21212F" stroke-width="4.94686" stroke-linecap="round"/>
<path d="M70.4922 3.03125C108.042 3.03125 138.482 33.4657 138.482 71.0085C138.482 91.9284 129.031 110.641 114.164 123.111" stroke="#8E48F3" stroke-width="4.94686" stroke-linecap="round"/>
</svg>
