<svg width="145" height="32" viewBox="0 0 145 32" fill="none" xmlns="http://www.w3.org/2000/svg">
<path d="M58.6724 1.28125L63.8619 19.4659L69.0208 1.28125H73.905L66.3345 25.6812H60.9619L53.4219 1.28125H58.6724Z" fill="#21212F"/>
<path d="M83.7943 25.848C76.6206 25.848 72.3164 20.648 72.3164 13.2633C72.3164 5.81719 76.6511 0.617188 83.7943 0.617188C90.968 0.617188 95.2722 5.81719 95.2722 13.2633C95.2722 20.6787 90.968 25.848 83.7943 25.848ZM83.7943 4.74026C79.7343 4.74026 77.3532 8.12488 77.3532 13.2941C77.3532 18.4633 79.6732 21.7556 83.7943 21.7556C87.9154 21.7556 90.2659 18.4326 90.2659 13.2941C90.2659 8.12488 87.8848 4.74026 83.7943 4.74026Z" fill="#21212F"/>
<path d="M111.94 17.2812V1.28125H116.702V17.6505C116.702 22.8197 113.008 26.0812 106.872 26.0812C100.553 26.0812 97.1953 23.0043 97.1953 17.6812V1.28125H102.141V17.2812C102.141 20.3889 103.758 21.9274 107.025 21.9274C110.322 21.8966 111.94 20.3889 111.94 17.2812Z" fill="#21212F"/>
<path d="M128.976 25.4469L123.085 5.56995V25.4469H118.414V1.04688H126.107L130.869 18.1546L135.845 1.04688H143.293V25.4469H138.348V5.56995L132.456 25.4469H128.976Z" fill="#21212F"/>
<path d="M45.8505 1.07764C42.3705 1.07764 39.3484 2.80072 36.8453 6.18534C34.9526 8.73918 33.5179 12.0007 32.1137 15.1392C29.3968 21.293 27.3821 25.3238 24.36 25.3238C21.3379 25.3238 19.3232 21.293 16.5758 15.17C15.2021 12.0007 13.7674 8.76995 11.8442 6.18534C9.34105 2.80072 6.31895 1.07764 2.83895 1.07764V1.04688H0.427368C0.183158 1.04688 0 1.26226 0 1.47764V7.23149C0 7.47764 0.183158 7.66226 0.427368 7.66226H2.83895C5.86105 7.66226 7.87579 11.693 10.5926 17.8469C11.9968 20.9853 13.4316 24.2469 15.3242 26.8007C17.8274 30.1853 20.8495 31.9084 24.3295 31.9084C27.8095 31.9084 30.8316 30.1853 33.3347 26.8007C35.2274 24.2469 36.6621 20.9853 38.0663 17.8469C40.7832 11.693 42.7979 7.66226 45.82 7.66226H48.201C48.4453 7.66226 48.6284 7.47764 48.6284 7.23149V1.50841C48.6284 1.26226 48.4453 1.07764 48.201 1.07764H45.8505V1.07764Z" fill="#8E48F3"/>
</svg>
